<svg xmlns="http://www.w3.org/2000/svg" xmlns:xlink="http://www.w3.org/1999/xlink" version="1.1" width="24" height="24" viewBox="0 0 256 256" xml:space="preserve">

<defs>
</defs>
<g style="stroke: none; stroke-width: 0; stroke-dasharray: none; stroke-linecap: butt; stroke-linejoin: miter; stroke-miterlimit: 10; fill: none; fill-rule: nonzero; opacity: 1;" transform="translate(1.4065934065934016 1.4065934065934016) scale(2.81 2.81)" >
	<path d="M 85.433 80.656 H 4.567 C 2.049 80.656 0 78.607 0 76.089 V 13.911 c 0 -2.519 2.049 -4.567 4.567 -4.567 h 20.65 c 1.639 0 3.201 0.785 4.18 2.099 l 2.402 3.228 c 0.921 1.238 2.393 1.978 3.937 1.978 h 49.697 c 2.519 0 4.567 2.049 4.567 4.568 v 54.873 C 90 78.607 87.951 80.656 85.433 80.656 z M 4.567 11.344 C 3.152 11.344 2 12.496 2 13.911 v 62.178 c 0 1.416 1.152 2.567 2.567 2.567 h 80.865 c 1.416 0 2.567 -1.151 2.567 -2.567 V 21.216 c 0 -1.416 -1.151 -2.568 -2.567 -2.568 H 35.736 c -2.173 0 -4.245 -1.041 -5.541 -2.784 l -2.402 -3.228 c -0.603 -0.81 -1.565 -1.293 -2.575 -1.293 H 4.567 z" style="stroke: none; stroke-width: 1; stroke-dasharray: none; stroke-linecap: butt; stroke-linejoin: miter; stroke-miterlimit: 10; fill: #d3d3d3; fill-rule: nonzero; opacity: 1;" transform=" matrix(1 0 0 1 0 0) " stroke-linecap="round" />
	<path d="M 85.433 80.656 H 4.567 C 2.049 80.656 0 78.607 0 76.089 V 29.463 c 0 -2.519 2.049 -4.567 4.567 -4.567 h 80.865 c 2.519 0 4.567 2.049 4.567 4.567 v 46.625 C 90 78.607 87.951 80.656 85.433 80.656 z M 4.567 26.896 C 3.152 26.896 2 28.048 2 29.463 v 46.625 c 0 1.416 1.152 2.567 2.567 2.567 h 80.865 c 1.416 0 2.567 -1.151 2.567 -2.567 V 29.463 c 0 -1.416 -1.151 -2.567 -2.567 -2.567 H 4.567 z" style="stroke: none; stroke-width: 1; stroke-dasharray: none; stroke-linecap: butt; stroke-linejoin: miter; stroke-miterlimit: 10; fill: #d3d3d3; fill-rule: nonzero; opacity: 1;" transform=" matrix(1 0 0 1 0 0) " stroke-linecap="round" />
	<path d="M 84.215 74.656 H 5.785 c -0.552 0 -1 -0.447 -1 -1 s 0.448 -1 1 -1 h 78.43 c 0.553 0 1 0.447 1 1 S 84.768 74.656 84.215 74.656 z" style="stroke: none; stroke-width: 1; stroke-dasharray: none; stroke-linecap: butt; stroke-linejoin: miter; stroke-miterlimit: 10; fill: #d3d3d3; fill-rule: nonzero; opacity: 1;" transform=" matrix(1 0 0 1 0 0) " stroke-linecap="round" />
</g>
</svg>
